<?xml version="1.0" standalone="no"?><!DOCTYPE svg PUBLIC "-//W3C//DTD SVG 1.1//EN" "http://www.w3.org/Graphics/SVG/1.1/DTD/svg11.dtd"><svg t="1664254979057" class="icon" viewBox="0 0 1024 1024" version="1.1" xmlns="http://www.w3.org/2000/svg" p-id="24431" xmlns:xlink="http://www.w3.org/1999/xlink" width="32" height="32"><path d="M1024 512c0-282.763636-229.236364-512-512-512C229.236364 0 0 229.236364 0 512c0 282.763636 229.236364 512 512 512C794.763636 1024 1024 794.763636 1024 512zM643.165091 259.584c0 0 46.638545-22.621091 65.349818-8.005818L745.192727 280.203636c18.804364 14.661818 8.005818 65.349818 8.005818 65.349818l-28.672 36.677818-110.033455-85.969455L643.165091 259.584zM325.771636 782.475636l2.280727-116.363636 272.244364-348.439273 36.677818 28.672-263.586909 337.361455-4.654545 43.752727 41.332364-15.080727 263.586909-337.361455 36.677818 28.672-272.244364 348.439273L325.771636 782.475636z" p-id="24432" fill="#39a56f"></path></svg>