<?xml version="1.0" standalone="no"?><!DOCTYPE svg PUBLIC "-//W3C//DTD SVG 1.1//EN" "http://www.w3.org/Graphics/SVG/1.1/DTD/svg11.dtd"><svg t="1664250906694" class="icon" viewBox="0 0 1024 1024" version="1.1" xmlns="http://www.w3.org/2000/svg" p-id="1396" xmlns:xlink="http://www.w3.org/1999/xlink" width="32" height="32"><path d="M512 0C228.693333 0 0 228.693333 0 512s228.693333 512 512 512 512-228.693333 512-512S795.306667 0 512 0z m303.786667 375.466667c-23.893333 30.72-47.786667 47.786667-71.68 75.093333-58.026667 61.44-78.506667 61.44-88.746667 61.44h-3.413333c-17.066667 0-30.72-3.413333-40.96-13.653333l-20.48 30.72 180.906666 187.733333c6.826667 10.24 13.653333 23.893333 10.24 37.546667 0 13.653333-6.826667 23.893333-13.653333 30.72-10.24 6.826667-20.48 10.24-30.72 10.24-10.24 0-20.48-3.413333-30.72-13.653334-6.826667-6.826667-105.813333-122.88-167.253333-191.146666l-177.493334 191.146666c-10.24 10.24-20.48 13.653333-34.133333 13.653334s-20.48 0-34.133333-10.24c-10.24-6.826667-13.653333-17.066667-13.653334-30.72-3.413333-13.653333 3.413333-30.72 10.24-40.96 10.24-10.24 153.6-150.186667 187.733334-180.906667l-13.653334-13.653333c-10.24 3.413333-75.093333-3.413333-92.16-20.48-13.653333-17.066667-98.986667-143.36-98.986666-201.386667 0-13.653333 6.826667-37.546667 30.72-37.546667 13.653333 0 30.72 10.24 54.613333 34.133334 13.653333 13.653333 150.186667 153.6 180.906667 187.733333l17.066666-20.48c-10.24-10.24-17.066667-20.48-23.893333-34.133333-3.413333-13.653333 0-30.72 6.826667-40.96l3.413333-6.826667c37.546667-47.786667 81.92-95.573333 129.706667-133.12 6.826667-6.826667 13.653333-6.826667 23.893333-6.826667s13.653333 6.826667 17.066667 13.653334c3.413333 6.826667 3.413333 13.653333 0 20.48-6.826667 6.826667-95.573333 102.4-105.813334 112.64-3.413333 3.413333-10.24 20.48-6.826666 20.48h3.413333c6.826667 0 10.24-3.413333 13.653333-6.826667 6.826667-6.826667 95.573333-98.986667 102.4-105.813333 3.413333-3.413333 10.24-6.826667 17.066667-6.826667 10.24 0 17.066667 6.826667 20.48 17.066667 3.413333 6.826667 3.413333 17.066667-3.413333 20.48-6.826667 10.24-98.986667 109.226667-102.4 116.053333-3.413333 3.413333-6.826667 6.826667-3.413334 13.653333l3.413334 3.413334c6.826667-3.413333 10.24-3.413333 13.653333-6.826667 3.413333-6.826667 95.573333-98.986667 105.813333-105.813333 3.413333-3.413333 10.24-6.826667 13.653334-6.826667 13.653333 0 23.893333 6.826667 30.72 17.066667 3.413333 6.826667 3.413333 17.066667 0 20.48z" fill="#39a56f" p-id="1397"></path></svg>