<?xml version="1.0" standalone="no"?><!DOCTYPE svg PUBLIC "-//W3C//DTD SVG 1.1//EN" "http://www.w3.org/Graphics/SVG/1.1/DTD/svg11.dtd"><svg t="1664093942025" class="icon" viewBox="0 0 1024 1024" version="1.1" xmlns="http://www.w3.org/2000/svg" p-id="10298" xmlns:xlink="http://www.w3.org/1999/xlink" width="32" height="32"><path d="M512 814.545455c-39.563636 0-69.818182-30.254545-69.818182-69.818182s30.254545-69.818182 69.818182-69.818182 69.818182 30.254545 69.818182 69.818182-30.254545 69.818182-69.818182 69.818182z m0-232.727273c-39.563636 0-69.818182-30.254545-69.818182-69.818182s30.254545-69.818182 69.818182-69.818182 69.818182 30.254545 69.818182 69.818182-30.254545 69.818182-69.818182 69.818182z m0-232.727273c-39.563636 0-69.818182-30.254545-69.818182-69.818182s30.254545-69.818182 69.818182-69.818182 69.818182 30.254545 69.818182 69.818182-30.254545 69.818182-69.818182 69.818182z" fill="#ffffff" p-id="10299"></path></svg>