<?xml version="1.0" standalone="no"?><!DOCTYPE svg PUBLIC "-//W3C//DTD SVG 1.1//EN" "http://www.w3.org/Graphics/SVG/1.1/DTD/svg11.dtd"><svg t="1664251109070" class="icon" viewBox="0 0 1024 1024" version="1.1" xmlns="http://www.w3.org/2000/svg" p-id="2751" xmlns:xlink="http://www.w3.org/1999/xlink" width="32" height="32"><path d="M814.933333 914.666667H214.4c-54.933333 0-99.733333-44.8-99.733333-99.733334V214.4c0-54.933333 44.8-99.733333 99.733333-99.733333h600.533333c54.933333 0 99.733333 44.8 99.733334 99.733333v600.533333c0 54.933333-44.8 99.733333-99.733334 99.733334z" fill="#3FCF77" p-id="2752"></path><path d="M533.333333 602.666667c0 56-57.066667 101.333333-128 101.333333-14.933333 0-28.8-2.133333-42.133333-5.866667-6.4-1.6-37.333333 24-43.2 21.866667-6.4-2.666667 11.2-34.666667 5.333333-37.866667-29.333333-18.666667-48-46.933333-48-79.466666 0-56 57.066667-101.333333 128-101.333334s128 45.333333 128 101.333334z" fill="#8CE2AD" p-id="2753"></path><path d="M746.666667 493.333333c0 54.4-32 102.4-81.066667 132.266667-8 4.8 26.133333 53.333333 17.066667 57.066667-8.533333 3.733333-60.266667-37.333333-69.866667-34.666667-19.2 5.333333-39.466667 8-60.8 8C444.266667 656 357.333333 582.933333 357.333333 493.333333S444.266667 330.666667 552 330.666667 746.666667 403.733333 746.666667 493.333333z" fill="#FFFFFF" p-id="2754"></path><path d="M485.333333 464m-21.333333 0a21.333333 21.333333 0 1 0 42.666667 0 21.333333 21.333333 0 1 0-42.666667 0Z" fill="#3FCF77" p-id="2755"></path><path d="M357.333333 581.333333m-14.933333 0a14.933333 14.933333 0 1 0 29.866667 0 14.933333 14.933333 0 1 0-29.866667 0Z" fill="#3FCF77" p-id="2756"></path><path d="M618.666667 464m-21.333334 0a21.333333 21.333333 0 1 0 42.666667 0 21.333333 21.333333 0 1 0-42.666667 0Z" fill="#3FCF77" p-id="2757"></path></svg>