<?xml version="1.0" standalone="no"?><!DOCTYPE svg PUBLIC "-//W3C//DTD SVG 1.1//EN" "http://www.w3.org/Graphics/SVG/1.1/DTD/svg11.dtd"><svg t="1664789049551" class="icon" viewBox="0 0 1025 1024" version="1.1" xmlns="http://www.w3.org/2000/svg" p-id="3017" xmlns:xlink="http://www.w3.org/1999/xlink" width="32.03125" height="32"><path d="M987.428571 475.428571a36.571429 36.571429 0 0 0-36.571428 36.571429v329.142857a109.714286 109.714286 0 0 1-109.714286 109.714286h-658.285714A109.714286 109.714286 0 0 1 73.142857 841.142857v-658.285714A109.714286 109.714286 0 0 1 182.857143 73.142857H512a36.571429 36.571429 0 0 0 36.571429-36.571428A36.571429 36.571429 0 0 0 512 0H182.857143A182.857143 182.857143 0 0 0 0 182.857143v658.285714A182.857143 182.857143 0 0 0 182.857143 1024h658.285714a182.857143 182.857143 0 0 0 182.857143-182.857143V512a36.571429 36.571429 0 0 0-36.571429-36.571429z" fill="" p-id="3018"></path><path d="M318.171429 707.291429a37.302857 37.302857 0 0 0 51.931428 0L1014.491429 62.171429a35.108571 35.108571 0 0 0 0-51.2 36.571429 36.571429 0 0 0-51.931429 0L318.171429 658.285714a37.302857 37.302857 0 0 0 0 49.005715z" fill="" p-id="3019"></path></svg>