<svg t="1664518278334" class="icon" viewBox="0 0 1024 1024" version="1.1" xmlns="http://www.w3.org/2000/svg" p-id="1022" width="32" height="32"><path d="M686.933333 923.733333H300.8c-87.466667 0-157.866667-70.4-157.866667-157.866666V270.933333c0-87.466667 70.4-157.866667 157.866667-157.866666h398.933333c87.466667 0 157.866667 70.4 157.866667 157.866666 0 17.066667-14.933333 32-32 32s-32-14.933333-32-32c0-51.2-42.666667-93.866667-93.866667-93.866666H300.8c-51.2 0-93.866667 42.666667-93.866667 93.866666v494.933334c0 51.2 42.666667 93.866667 93.866667 93.866666h388.266667c57.6 0 104.533333-46.933333 104.533333-104.533333 0-17.066667 14.933333-32 32-32s32 14.933333 32 32c0 93.866667-76.8 168.533333-170.666667 168.533333z" p-id="1023"></path><path d="M661.333333 437.333333H326.4c-17.066667 0-32-14.933333-32-32s14.933333-32 32-32H661.333333c17.066667 0 32 14.933333 32 32s-14.933333 32-32 32zM672 650.666667H326.4c-17.066667 0-32-14.933333-32-32s14.933333-32 32-32h345.6c17.066667 0 32 14.933333 32 32s-14.933333 32-32 32z" p-id="1024"></path><path d="M825.6 676.266667c-17.066667 0-32-14.933333-32-32V369.066667c0-17.066667 14.933333-32 32-32s32 14.933333 32 32v273.066666c0 19.2-14.933333 34.133333-32 34.133334z" fill="#FBAA00" p-id="1025"></path></svg>